<?xml version="1.0" encoding="utf-8"?>
<!-- Generator: Adobe Illustrator 22.0.1, SVG Export Plug-In . SVG Version: 6.00 Build 0)  -->
<svg version="1.1" id="Layer_1" xmlns="http://www.w3.org/2000/svg" xmlns:xlink="http://www.w3.org/1999/xlink" x="0px" y="0px"
	 viewBox="0 0 48 48" style="enable-background:new 0 0 48 48;" xml:space="preserve">
<style type="text/css">
	.st0{fill:#405C97;}
	.st1{fill:#FFFFFF;}
</style>
<path class="st0" d="M99.9,72.1c2.5-0.3,4.9-1.2,7-2.4c-2.2,1.1-4.5,1.8-7,2.2V72.1z"/>
<path class="st0" d="M94.2,72.1v-0.2c-2.4-0.3-4.7-1.1-6.8-2.1C89.5,70.9,91.8,71.7,94.2,72.1z"/>
<g>
	<path class="st1" d="M31.9,29.4l0.8-5.3h-6v-2.9c0-2.2,0.7-4.1,2.8-4.1h3.3v-4.6c-0.6-0.1-1.8-0.2-4.1-0.2c-4.8,0-7.6,2.5-7.6,8.3
		v3.5h-4.9v5.3H21v14.3c1,0.1,2,0.2,3,0.2c0.9,0,1.8-0.1,2.7-0.2V29.4H31.9z"/>
	<path class="st0" d="M44,24.1c0-11-9-20-20-20c-11,0-20,9-20,20c0,7.5,4.1,14,10.2,17.4c2.1,1.1,4.4,1.8,6.8,2.1V29.4h-4.9v-5.3H21
		v-3.5c0-5.8,2.8-8.3,7.6-8.3c2.3,0,3.5,0.2,4.1,0.2v4.6h-3.3c-2,0-2.8,1.9-2.8,4.1v2.9h6l-0.8,5.3h-5.2v14.3c2.5-0.3,4.9-1.1,7-2.2
		C39.9,38.1,44,31.6,44,24.1z"/>
</g>
</svg>
