<?xml version="1.0" encoding="utf-8"?>
<!-- Generator: Adobe Illustrator 22.0.1, SVG Export Plug-In . SVG Version: 6.00 Build 0)  -->
<svg version="1.1" id="Layer_1" xmlns="http://www.w3.org/2000/svg" xmlns:xlink="http://www.w3.org/1999/xlink" x="0px" y="0px"
	 viewBox="0 0 48 48" style="enable-background:new 0 0 48 48;" xml:space="preserve">
<style type="text/css">
	.st0{fill:#79878C;}
	.st1{fill:#FFFFFF;}
</style>
<g>
	<path class="st0" d="M24,46L24,46C11.8,46,2,36.2,2,24v0C2,11.8,11.8,2,24,2h0c12.2,0,22,9.9,22,22v0C46,36.2,36.2,46,24,46z"/>
	<g id="XMLID_122_">
		<g>
			<path class="st1" d="M37.8,22.2c0.1-0.8,0.2-1.7,0.2-2.7c0-4.3-2.1-5.9-2.5-6.6c0.6-3.3-0.1-4.8-0.4-5.3
				c-1.2-0.4-4.1,1.1-5.7,2.1C26.8,8.9,21.3,9,19.3,9.9c-3.8-2.7-5.8-2.3-5.8-2.3s-1.3,2.3-0.3,5.7c-1.2,1.6-2.2,2.7-2.2,5.7
				c0,0.7,0,1.4,0.1,2c1.1,5.7,5.6,8.1,10,8.5c-0.7,0.5-1.5,1.5-1.6,2.6c-0.8,0.5-2.5,0.7-3.8,0.3c-1.8-0.6-2.5-4.2-5.3-3.7
				c-0.6,0.1-0.5,0.5,0,0.8c0.8,0.5,1.6,1.2,2.2,2.6c0.5,1.1,1.4,3.1,4.5,3.1c1.2,0,2.1-0.1,2.1-0.1s0,2.8,0,3.9
				c0,1.3-1.7,1.6-1.7,2.2c0,0.2,0.6,0.3,1,0.3c0.9,0,2.8-0.7,2.8-2.1c0-1,0-4.5,0-5.2c0-1.3,0.7-1.8,0.7-1.8s0.1,7.2-0.2,8.1
				c-0.3,1.1-0.9,1-0.9,1.5c0,0.7,2.2,0.2,3-1.5c0.6-1.3,0.3-8.3,0.3-8.3l0.6,0c0,0,0,3.2,0,4.7c0,1.5-0.2,3.4,0.7,4.3
				c0.6,0.6,2.4,1.6,2.4,0.7c0-0.6-1.3-1-1.3-2.5v-6.9c0.8,0,0.9,2.3,0.9,2.3l0.3,4.2c0,0-0.2,1.5,1.7,2.2c0.7,0.2,2,0.3,2.1-0.1
				c0.1-0.4-1.7-1-1.7-2.1c0-0.7,0-1.2,0-4.3c0-3.2-0.4-4.3-1.9-5.3C32.5,29.1,37,27.2,37.8,22.2z"/>
		</g>
	</g>
</g>
</svg>
