<?xml version="1.0" encoding="utf-8"?>
<!-- Generator: Adobe Illustrator 22.0.1, SVG Export Plug-In . SVG Version: 6.00 Build 0)  -->
<svg version="1.1" id="Layer_1" xmlns="http://www.w3.org/2000/svg" xmlns:xlink="http://www.w3.org/1999/xlink" x="0px" y="0px"
	 viewBox="0 0 48 48" style="enable-background:new 0 0 48 48;" xml:space="preserve">
<style type="text/css">
	.st0{fill:url(#SVGID_1_);}
	.st1{fill:url(#SVGID_2_);}
	.st2{fill:url(#SVGID_3_);}
</style>
<g>
	
		<linearGradient id="SVGID_1_" gradientUnits="userSpaceOnUse" x1="-66.5533" y1="-603.5717" x2="-65.6342" y2="-604.4908" gradientTransform="matrix(32 0 0 32 2139 19353)">
		<stop  offset="0" style="stop-color:#FFC107"/>
		<stop  offset="0.507" style="stop-color:#F44336"/>
		<stop  offset="0.99" style="stop-color:#9C27B0"/>
	</linearGradient>
	<path class="st0" d="M30.8,6H17.3C11,6,6,11,6,17.3v13.5C6,37,11,42,17.3,42h13.5C37,42,42,37,42,30.8V17.3C42,11,37,6,30.8,6z
		 M38.6,30.8c0,4.3-3.5,7.9-7.9,7.9H17.3c-4.3,0-7.9-3.5-7.9-7.9V17.3c0-4.3,3.5-7.9,7.9-7.9h13.5c4.3,0,7.9,3.5,7.9,7.9V30.8z"/>
	
		<linearGradient id="SVGID_2_" gradientUnits="userSpaceOnUse" x1="-66.2926" y1="-603.8324" x2="-65.8949" y2="-604.2301" gradientTransform="matrix(32 0 0 32 2139 19353)">
		<stop  offset="0" style="stop-color:#FFC107"/>
		<stop  offset="0.507" style="stop-color:#F44336"/>
		<stop  offset="0.99" style="stop-color:#9C27B0"/>
	</linearGradient>
	<path class="st1" d="M24,15c-5,0-9,4-9,9s4,9,9,9s9-4,9-9S29,15,24,15z M24,29.6c-3.1,0-5.6-2.5-5.6-5.6c0-3.1,2.5-5.6,5.6-5.6
		s5.6,2.5,5.6,5.6C29.6,27.1,27.1,29.6,24,29.6z"/>
	
		<linearGradient id="SVGID_3_" gradientUnits="userSpaceOnUse" x1="-65.8179" y1="-604.3071" x2="-65.7649" y2="-604.3601" gradientTransform="matrix(32 0 0 32 2139 19353)">
		<stop  offset="0" style="stop-color:#FFC107"/>
		<stop  offset="0.507" style="stop-color:#F44336"/>
		<stop  offset="0.99" style="stop-color:#9C27B0"/>
	</linearGradient>
	<circle class="st2" cx="33.7" cy="14.3" r="1.2"/>
</g>
</svg>
