<?xml version="1.0" encoding="utf-8"?>
<!-- Generator: Adobe Illustrator 22.0.1, SVG Export Plug-In . SVG Version: 6.00 Build 0)  -->
<svg version="1.1" id="Layer_1" xmlns="http://www.w3.org/2000/svg" xmlns:xlink="http://www.w3.org/1999/xlink" x="0px" y="0px"
	 viewBox="0 0 48 48" style="enable-background:new 0 0 48 48;" xml:space="preserve">
<style type="text/css">
	.st0{fill:#FFFFFF;}
	.st1{fill:#0074B0;}
</style>
<g>
	<rect x="12.6" y="19.9" class="st0" width="5.2" height="14.4"/>
	<path class="st0" d="M27.3,26.4c0-2.3,1.7-2.7,2.2-2.7c0.5,0,1.8,0.5,1.8,2.7v7.9h5v-7.9c0-4.5-2-6.5-4.5-6.5s-3.9,0.8-4.5,2v-2
		h-5.2v14.4h5.2C27.3,34.3,27.3,26.8,27.3,26.4z"/>
	<path class="st0" d="M15.1,17.2c1.8,0,2.8-1.1,2.8-2.5s-1.1-2.5-2.7-2.5c-1.8,0-2.8,1.1-2.8,2.5S13.5,17.2,15.1,17.2z"/>
	<path class="st1" d="M38.4,5.4H9.6c-2.3,0-4.1,1.8-4.1,4.1v28.9c0,2.3,1.8,4.1,4.1,4.1h28.9c2.3,0,4.1-1.8,4.1-4.1V9.6
		C42.6,7.3,40.7,5.4,38.4,5.4z M15.1,17.2c-1.6,0-2.7-1.1-2.7-2.5s1.1-2.5,2.8-2.5c1.6,0,2.7,1.1,2.7,2.5S16.9,17.2,15.1,17.2z
		 M17.8,19.9v14.4h-5.2V19.9H17.8z M36.4,34.3h-5v-7.9c0-2.2-1.3-2.7-1.8-2.7c-0.5,0-2.2,0.3-2.2,2.7c0,0.3,0,7.9,0,7.9h-5.2V19.9
		h5.2v2c0.7-1.2,2-2,4.5-2s4.5,2,4.5,6.5V34.3z"/>
</g>
</svg>
