<?xml version="1.0" encoding="utf-8"?>
<!-- Generator: Adobe Illustrator 22.0.1, SVG Export Plug-In . SVG Version: 6.00 Build 0)  -->
<svg version="1.1" id="Layer_1" xmlns="http://www.w3.org/2000/svg" xmlns:xlink="http://www.w3.org/1999/xlink" x="0px" y="0px"
	 viewBox="0 0 48 48" style="enable-background:new 0 0 48 48;" xml:space="preserve">
<style type="text/css">
	.st0{fill:#00CAFE;}
	.st1{fill:#F63445;}
	.st2{fill:#FED000;}
	.st3{fill:#00F075;}
</style>
<title></title>
<g>
	<path class="st0" d="M24.7,23.4L7.9,5.2c-0.4-0.3-0.9-0.3-1.2,0C6.6,5.3,6.5,5.5,6.5,5.8v36.4c0,0.5,0.4,0.8,0.8,0.8
		c0.2,0,0.5-0.1,0.6-0.3l16.8-18.2C25,24.2,25,23.8,24.7,23.4z"/>
	<path class="st1" d="M26.9,25.9c-0.3-0.3-0.9-0.3-1.2,0l0,0L12.6,40.1c-0.3,0.3-0.3,0.9,0.1,1.2c0.3,0.2,0.7,0.3,1,0.1
		c5-3,11.3-6.6,17-10c0.4-0.2,0.5-0.7,0.3-1.1c0-0.1-0.1-0.1-0.1-0.1L26.9,25.9z"/>
	<path class="st2" d="M40.6,22.6L40.6,22.6l-7.1-4.2c-0.3-0.2-0.8-0.1-1,0.1l-4.6,5c-0.3,0.3-0.3,0.8,0,1.1l4.6,5
		c0.3,0.3,0.7,0.3,1,0.1l7.1-4.2c0.8-0.4,1.1-1.3,0.7-2.1C41,23,40.8,22.8,40.6,22.6L40.6,22.6z"/>
	<path class="st3" d="M25.8,22.1c0.3,0.3,0.8,0.4,1.2,0.1c0,0,0,0,0.1-0.1l3.9-4.2c0.3-0.3,0.3-0.9,0-1.2l-0.1-0.1
		c-5.8-3.4-12.2-7-17.3-10c-0.4-0.2-0.9-0.1-1.1,0.3c-0.2,0.3-0.1,0.7,0.1,1L25.8,22.1z"/>
</g>
</svg>
