<?xml version="1.0" encoding="utf-8"?>
<!-- Generator: Adobe Illustrator 22.0.1, SVG Export Plug-In . SVG Version: 6.00 Build 0)  -->
<svg version="1.1" id="Layer_1" xmlns="http://www.w3.org/2000/svg" xmlns:xlink="http://www.w3.org/1999/xlink" x="0px" y="0px"
	 viewBox="0 0 400 559.9" style="enable-background:new 0 0 400 559.9;" xml:space="preserve">
<style type="text/css">
	.st0{opacity:0.11;}
	.st1{fill:#110239;}
	.st2{fill:#F45762;}
	.st3{opacity:0.35;fill:#C9071E;}
	.st4{fill:#FCD4CA;}
	.st5{fill:#E8A393;}
	.st6{fill:#BBEADB;}
	.st7{fill:#83CCC3;}
	.st8{fill:#FFD066;}
	.st9{fill:#0186CB;}
	.st10{fill:#1E1EA4;}
</style>
<path class="st0" d="M-56,590.4c0,0,241.6,10,313.4-52.7c18.3-16,25.6-36.7,15-63.5C220.4,342.4,214,269,316,195S17,200.4-26,96.2
	S-56,590.4-56,590.4z"/>
<g>
	<path class="st1" d="M10.7,512.7c0,0-11,21.6-8.5,26c2.4,4.5,48.5,23.6,54,20.8c5.5-2.7,5.8-10.7-3-17c-9.5-6.8-15.7-5.9-21.3-11
		c-5.6-5.2,0-14.9,0-14.9L10.7,512.7z"/>
	<path class="st1" d="M165.3,520.6c0,0-0.5,23.6,3.4,26.7c4,3.2,53.8,2.9,57.8-1.8c4-4.7,1.5-11.1-8.7-13.2
		c-9.1-1.8-15.9,0.1-22.9-2.8c-6.2-2.5-9.6-16.2-9.6-16.2L165.3,520.6z"/>
	<path class="st2" d="M125,268l-65,4c0,0,54.6,122.5,61.3,136.6c6.7,14,40.9,115.3,40.9,115.3l26.4-9.8c0,0-30-105.5-33.7-114.7
		C151.2,390.3,125,268,125,268z"/>
	<path class="st3" d="M102.9,316c2.1-10.9,3.6-25,6-35.8c0.9-4.3,6.9-4.5,7.4-8.8c-1-0.8-1.9-1.6-2.6-2.7L60,272
		c0,0,54.6,122.5,61.3,136.6c0.7,1.4,1.6,3.7,2.7,6.6c0-2.4-0.1-4.7-0.3-7C122.4,389.2,100.5,328.3,102.9,316z"/>
	<path class="st2" d="M106.7,273.5H51.2c0,0-9.8,20.1-6.4,43.9c3.4,23.8,4.2,78.1,3.8,84.2c-0.4,6.1-37.2,89.5-41.4,112.2l25.6,9.1
		c0,0,50.4-103.1,52.1-105.5C86.3,415.1,106.7,273.5,106.7,273.5z"/>
	<path class="st4" d="M122.2,248.8c0,0,11,15.9,18.6,14.6c7.6-1.2,54-33.2,54-33.2l-4.3-10.4c0,0-42.4,29-46.7,27.8
		c-4.3-1.2-9.8-12.8-9.8-12.8L122.2,248.8z"/>
	<path class="st5" d="M122.2,248.8c0,0,11,15.9,18.6,14.6c7.6-1.2,54-33.2,54-33.2l-4.3-10.4c0,0-42.4,29-46.7,27.8
		c-4.3-1.2-9.8-12.8-9.8-12.8L122.2,248.8z"/>
	<path class="st6" d="M36.7,292.2c0,0,55.7,12.6,98.4-2.8c0,0-9.6-39.4-12.9-61.4c-3.4-22-7.8-56.5-20.4-65.1
		c-12.6-8.5-21-9.9-21-9.9s-2.4,8.2-10.1,10.1c-7.6,1.8-23.2-10.1-23.2-10.1s-35.4,16.3-39.4,22.9c-8.2,13.5,24.8,50.9,29.6,70.7
		C42.6,266.5,36.7,292.2,36.7,292.2z"/>
	<path class="st7" d="M64.8,241.6c-2.6-9.1-2.3-29.3-13.1-39.6c-6.2-5.9-13.8-15.1-23-16.7c-11.1-1.9-11.8,0.4-21.8-1.9
		c2.1,16.8,26.6,46.4,30.7,63.3c4.9,19.8-1,45.5-1,45.5s22,5,48.9,4.8C75.6,280.1,70,259.6,64.8,241.6z"/>
	<path class="st4" d="M40.5,127.7c0,0,12.5,22.3,6.4,29c0,0,16.8,15.2,29.9,8.8c13.1-6.4,5.5-12.2,5.5-12.2s-9.2-4-13.7-23.2
		C64,111,40.5,127.7,40.5,127.7z"/>
	<path class="st5" d="M53.7,161.7c2.1-3.5,4.8-6.6,8.5-9.1c4.1-2.9,9.1-4.2,14.1-4.7c-2.7-3.5-5.7-9.1-7.8-17.8
		c-4.6-19.2-28.1-2.4-28.1-2.4s12.5,22.3,6.4,29C46.9,156.7,49.6,159.2,53.7,161.7z"/>
	<path class="st1" d="M33.5,83.7c0,7.8-6.4,14.2-14.3,14.2S4.9,91.5,4.9,83.7s6.4-14.2,14.3-14.2S33.5,75.8,33.5,83.7z"/>
	<path class="st4" d="M62.5,82.6c0,0,9.3,2.7,11.4,10.8c2.1,8.1,1.1,4.7,2.9,5.8c1.8,1.1,11.4,8.2,10.7,9.5s-5.6,4.3-6.9,4.9
		c0,0,2.1,3.7,4.9,8.7c2.7,5-15.1,11.3-21.3,9c-6.3-2.3-21.8-12.2-22.4-27.1C41.1,89.2,47.9,78.2,62.5,82.6z"/>
	<path class="st1" d="M24.7,82.6c0,0,11.6-5.5,17-7.9c5.4-2.4,11.7-6.1,19.7-4.3c7.9,1.8,15.1,10,10.9,19.4c0,0-5.6-7.7-11.1-6.1
		c-5.5,1.6-4.3,9.9-7.3,14.2c-3,4.3,2.8,19.4,6.1,23.1c0,0,21.1,1.6,23.8-1.9c0,0,1.9,2.9,4.6,8.1c2.7,5.2,7.3,12.7,0.8,16.2
		c-6.6,3.5-26.4-0.2-28.1-1.8c-1.7-1.7-7.1-15.9-13.3-13.7c-6.2,2.2-4.4,5.7-4.4,5.7s-3.8,2.5-12.5-4.8c-8.7-7.3-9.4-16.5-7.6-24.2
		S24.7,83.7,24.7,82.6z"/>
	<path class="st4" d="M52.5,119.8c0,0-3.4-6.4-6.9-9.5c-3.4-3.1-8.8,0.6-7.5,7.3C39.6,124.3,54.7,123.3,52.5,119.8z"/>
	<g>
		<path class="st8" d="M106.7,168c0,0,1.6,8.3,0,15.2c-1.6,6.9-37.4,56.9-33.7,68.3c3.6,11.4,35.8,30.5,44.3,28.5
			c8.5-2,40.6-48.6,47.9-48.4c7.3,0.2,89.9,10.2,118.4-53.3c28.5-63.4,1.2-102.1-13.4-117.5c-14.6-15.5-83-51-138.2-3.7
			C86.7,95.8,106.7,152.8,106.7,168z"/>
		<g>
			<g>
				<path class="st9" d="M114,211.9c0,0,34.5-42.1,36.3-50.6c1.8-8.5,4.9-41.2,6.1-47.6c1.2-6.4,10.4-7.5,8.8,2.1
					c-1.4,8.3-3.3,38.7-6.6,49.1c-3.4,10.4-36.9,56.7-36.9,56.7L114,211.9z"/>
				<path class="st9" d="M138.8,232c0,0,31.8-44.1,39.6-48.1c7.8-4,38.5-15.3,44.4-18.1c5.9-2.8,4.6-12-4.3-7.9
					c-7.6,3.4-36.6,13.1-45.7,19c-9.2,5.9-45.3,50.2-45.3,50.2L138.8,232z"/>
				<g>
					<path class="st9" d="M223.8,159.6c-7.8-1.7-18.1-8.9-23.8-16.6c-0.1,0-0.2,0-0.3,0c-9.1,0-16.1-7.9-18.9-16.8
						c-9.5-2.6-19.7-9.7-21.2-10.9l2.8-4c4.4,3.2,11.2,7.1,17.2,9.3c-0.9-7.5,1.7-13,6.8-14.2c6.4-1.6,10.6,1.8,11.9,6
						c1.6,5-0.7,11.6-7.2,14c-1.4,0.5-3,0.7-4.8,0.7c2.2,5.1,5.9,9.4,10.5,10.7c-0.7-1.7-1.2-3.3-1.3-4.9c-0.1-2.5,0.6-6.9,6.7-8.9
						c4.1-1.4,7.8-0.7,10.1,1.9c2.2,2.5,2.7,6.3,1.2,9.7c-1.4,3.2-4.3,5.5-8,6.7c5,5.8,12.9,11.3,19.2,12.7L223.8,159.6z
						 M206.2,128.1c-0.7,0-1.5,0.1-2.4,0.4c-3.1,1-3.4,2.7-3.3,4c0.1,1.6,0.8,3.4,1.9,5.3c3.2-0.6,5.7-2.1,6.7-4.4
						c0.7-1.6,0.6-3.4-0.3-4.4C208.2,128.4,207.3,128.1,206.2,128.1z M184.7,122c1.8,0.3,3.4,0.2,4.6-0.2c3.8-1.4,5.1-5.2,4.2-8
						c-0.8-2.5-3-3.4-6-2.7c-3,0.8-3.6,5.4-3.1,9.2C184.5,120.9,184.6,121.4,184.7,122z"/>
				</g>
			</g>
		</g>
		<g>
			<path class="st10" d="M133.5,212.4c-7.3-6.5-18.3-12.4-22.7-21.5c-1.4-3-2.7-6-3.9-9c-0.1,0.4-0.1,0.9-0.2,1.3
				c-1.6,6.9-37.4,56.9-33.7,68.3c3.6,11.4,35.8,30.5,44.3,28.5c7.7-1.8,34.3-39.5,44.9-47C151.7,227.5,142.2,220.1,133.5,212.4z"/>
			<path class="st1" d="M146.4,249.4c2.9-3.4,5.7-6.5,8.2-9.3c-28.6-11.4-45.8-38.6-51.7-49.5c-2,3.4-4.5,7.5-7.3,12.1
				C109.1,224.9,135,242.4,146.4,249.4z"/>
			<path class="st1" d="M132.8,265.4c2.5-2.9,5.1-5.9,7.7-9c-26.5-11.9-42.6-37-48.4-47.7c-2.4,4-4.9,8.1-7.2,12.3
				C97.5,241.3,120.5,257.7,132.8,265.4z"/>
			<path class="st1" d="M126.4,272.5c-24-12.1-39-34.8-45-45.5c-2.6,4.8-4.8,9.4-6.4,13.4c11.4,17.2,29.8,31.3,42.1,39.6
				c0,0,0.1,0,0.1,0C119.2,279.5,122.5,276.6,126.4,272.5z"/>
		</g>
	</g>
	<path class="st4" d="M45.1,217.1c0,0,15.9,32.6,19.2,32.9c3.4,0.3,61.1-4.3,65.3-6.7c2.4-1.4,4.3-3.6,6.5-5.4c1-0.8,2-1.7,3-2.4
		c1.2-0.8,2.6-1.2,3.7-2.1c0.9-0.8,4-5.4,5.8-5c1.4,0.3,1.3,1.4,1,2.6c-0.3,1.5-2.3,2.8-3.3,3.9c-0.6,0.6-2.2,2.3-1.9,3.2
		c0.4,1.3,3.3-1,3.9-1.4c1-0.7,1.8-1.3,2.7-2.3c0.9-1,1.7-2.1,2.4-3.2c0.5-0.7,0.9-1.4,1.4-2.1c0.8-1.1,1.4-2.2,2.1-3.4
		c0.5-0.9,1.3-1.9,2.4-1.3c1.3,0.7,0,2.8-0.5,3.7c-0.5,1-1,1.9-1.4,2.9c-0.3,0.7-1.4,1.8-1,2.6c1.2-0.8,2.3-2.5,3.2-3.6
		c0.6-0.8,3.5-5.6,4.9-4.7c2.2,1.5-0.4,4.7-1.4,6c-0.6,0.9-1.4,1.8-2.2,2.5c-0.4,0.3-2,2-1.7,2c2-0.2,3.5-3.3,4.8-4.7
		c0.8-0.9,3.3-3.5,3.6-0.9c0.1,1.1-0.5,1.9-1.1,2.8c-0.8,1.2-2,2.6-3.2,3.5c-1,0.7-2.1,2.3-2.1,2.3c1.5,0,4.5-3.9,5.9-2.9
		c0.9,0.7-0.1,2.5-0.6,3.1c-3.5,3.9-8.8,6.6-13.4,9c-5,2.7-10.1,5.1-15.4,7.1c-7.5,3-71.1,22.9-78.7,22
		c-7.6-0.9-27.8-39.9-33.5-51.2C19.8,214.6,45.1,217.1,45.1,217.1z"/>
	<path class="st6" d="M23.4,234.8c0,0,20.1-7.5,31.7-17.9c0,0-26-58.3-44.4-43.7C-7.7,187.8,23.4,234.8,23.4,234.8z"/>
	<path class="st5" d="M42,112.8c0,0,3.5-1.1,5.8,2.2c2.1,3.1,0.5,7.4-1.7,5.5c-2.2-1.9-1.1-3.3-1.3-4.7
		C44.5,114.3,42.9,113,42,112.8z"/>
	<path class="st4" d="M193,228.3c1-0.6,2.4,0.1,4.1,1.6c-2.3-2.8-5-5.8-2.3-6.1c2.6-0.4,4.4,3.6,6.2,4.9c-1-1.4-6.9-5.5-4.6-8.6
		c1.4-1.8,7.7,5.3,9,6.8c-1.2-1.2-6.6-6.8-3.7-7.9c2.5-1,6.2,3.8,8,5.3c1.3,1.1,3.2,2,3.5,3.9c0.6,3.6-4.6,6-7.3,6.8
		c-3.6,1-7.5,0.1-10.6-1.8C193.4,231.9,192,229,193,228.3z"/>
</g>
</svg>
