<?xml version="1.0" encoding="utf-8"?>
<!-- Generator: Adobe Illustrator 22.0.1, SVG Export Plug-In . SVG Version: 6.00 Build 0)  -->
<svg version="1.1" id="Layer_1" xmlns="http://www.w3.org/2000/svg" xmlns:xlink="http://www.w3.org/1999/xlink" x="0px" y="0px"
	 viewBox="0 0 400 428.9" style="enable-background:new 0 0 400 428.9;" xml:space="preserve">
<style type="text/css">
	.st0{fill:#FCD4CA;}
	.st1{fill:#E8A393;}
	.st2{fill:#BBEADB;}
	.st3{fill:#83CCC3;}
	.st4{fill:#110239;}
	.st5{fill:#FFD066;}
	.st6{fill:#0186CB;}
	.st7{fill:#1E1EA4;}
	.st8{fill:url(#SVGID_1_);}
</style>
<g>
	<path class="st0" d="M166.4,268.7c0,0,13.1,18.9,22.1,17.3c9-1.4,64.1-39.4,64.1-39.4l-5.1-12.3c0,0-50.3,34.4-55.4,33
		S180.5,252,180.5,252L166.4,268.7z"/>
	<path class="st1" d="M166.4,268.7c0,0,13.1,18.9,22.1,17.3c9-1.4,64.1-39.4,64.1-39.4l-5.1-12.3c0,0-50.3,34.4-55.4,33
		S180.5,252,180.5,252L166.4,268.7z"/>
	<path class="st2" d="M65,320.2c0,0,66.1,15,116.8-3.3c0,0-11.4-46.8-15.3-72.9c-4-26.1-9.3-67.1-24.2-77.3
		c-15-10.1-24.9-11.7-24.9-11.7s-2.8,9.7-12,12c-9,2.1-27.5-12-27.5-12s-42,19.3-46.8,27.2c-9.7,16,29.4,60.4,35.1,83.9
		C72,289.7,65,320.2,65,320.2z"/>
	<path class="st3" d="M98.3,260.1c-3.1-10.8-2.7-34.8-15.5-47c-7.4-7-16.4-17.9-27.3-19.8c-13.2-2.3-14,0.5-25.9-2.3
		c2.5,19.9,31.6,55.1,36.4,75.1c5.8,23.5-1.2,54-1.2,54s26.1,5.9,58,5.7C111.1,305.8,104.5,281.5,98.3,260.1z"/>
	<path class="st0" d="M69.5,124.9c0,0,14.8,26.5,7.6,34.4c0,0,19.9,18,35.5,10.4s6.5-14.5,6.5-14.5s-10.9-4.7-16.3-27.5
		C97.4,105.1,69.5,124.9,69.5,124.9z"/>
	<path class="st1" d="M85.1,165.3c2.5-4.2,5.7-7.8,10.1-10.8c4.9-3.4,10.8-5,16.7-5.6c-3.2-4.2-6.8-10.8-9.3-21.1
		c-5.5-22.8-33.4-2.8-33.4-2.8s14.8,26.5,7.6,34.4C77.1,159.3,80.3,162.3,85.1,165.3z"/>
	<path class="st4" d="M61.2,72.7c0,9.3-7.6,16.9-17,16.9s-17-7.6-17-16.9s7.6-16.9,17-16.9S61.2,63.3,61.2,72.7z"/>
	<path class="st0" d="M95.6,71.4c0,0,11,3.2,13.5,12.8c2.5,9.6,1.3,5.6,3.4,6.9c2.1,1.3,13.5,9.7,12.7,11.3
		c-0.8,1.5-6.6,5.1-8.2,5.8c0,0,2.5,4.4,5.8,10.3c3.2,5.9-17.9,13.4-25.3,10.7C90.1,126.5,71.7,114.7,71,97
		C70.2,79.2,78.3,66.2,95.6,71.4z"/>
	<path class="st4" d="M50.7,71.4c0,0,13.8-6.5,20.2-9.4c6.4-2.8,13.9-7.2,23.4-5.1c9.4,2.1,17.9,11.9,12.9,23c0,0-6.6-9.1-13.2-7.2
		c-6.5,1.9-5.1,11.7-8.7,16.9c-3.6,5.1,3.3,23,7.2,27.4c0,0,25,1.9,28.2-2.3c0,0,2.3,3.4,5.5,9.6c3.2,6.2,8.7,15.1,0.9,19.2
		c-7.8,4.2-31.3-0.2-33.4-2.1c-2-2-8.4-18.9-15.8-16.3c-7.4,2.6-5.2,6.8-5.2,6.8s-4.5,3-14.8-5.7s-11.2-19.6-9-28.7
		C51.2,88.4,50.7,72.7,50.7,71.4z"/>
	<path class="st0" d="M83.7,115.5c0,0-4-7.6-8.2-11.3c-4-3.7-10.4,0.7-8.9,8.7C68.4,120.9,86.3,119.7,83.7,115.5z"/>
	<g>
		<path class="st5" d="M148.1,172.8c0,0,1.9,9.9,0,18c-1.9,8.2-44.4,67.5-40,81.1c4.3,13.5,42.5,36.2,52.6,33.8
			c10.1-2.4,48.2-57.7,56.9-57.4c8.7,0.2,106.7,12.1,140.5-63.3c33.8-75.2,1.4-121.2-15.9-139.5c-17.3-18.4-98.5-60.5-164-4.4
			C124.3,87.1,148.1,154.7,148.1,172.8z"/>
		<g>
			<g>
				<path class="st6" d="M156.7,224.9c0,0,40.9-50,43.1-60.1c2.1-10.1,5.8-48.9,7.2-56.5s12.3-8.9,10.4,2.5
					c-1.7,9.9-3.9,45.9-7.8,58.3c-4,12.3-43.8,67.3-43.8,67.3L156.7,224.9z"/>
				<path class="st6" d="M186.1,248.7c0,0,37.7-52.3,47-57.1c9.3-4.7,45.7-18.2,52.7-21.5c7-3.3,5.5-14.2-5.1-9.4
					c-9,4-43.4,15.5-54.2,22.6c-10.9,7-53.8,59.6-53.8,59.6L186.1,248.7z"/>
				<g>
					<path class="st6" d="M287,162.8c-9.3-2-21.5-10.6-28.2-19.7c-0.1,0-0.2,0-0.4,0c-10.8,0-19.1-9.4-22.4-19.9
						c-11.3-3.1-23.4-11.5-25.2-12.9l3.3-4.7c5.2,3.8,13.3,8.4,20.4,11c-1.1-8.9,2-15.4,8.1-16.9c7.6-1.9,12.6,2.1,14.1,7.1
						c1.9,5.9-0.8,13.8-8.5,16.6c-1.7,0.6-3.6,0.8-5.7,0.8c2.6,6.1,7,11.2,12.5,12.7c-0.8-2-1.4-3.9-1.5-5.8c-0.1-3,0.7-8.2,8-10.6
						c4.9-1.7,9.3-0.8,12,2.3c2.6,3,3.2,7.5,1.4,11.5c-1.7,3.8-5.1,6.5-9.5,8c5.9,6.9,15.3,13.4,22.8,15.1L287,162.8z M266.1,125.4
						c-0.8,0-1.8,0.1-2.8,0.5c-3.7,1.2-4,3.2-3.9,4.7c0.1,1.9,0.9,4,2.3,6.3c3.8-0.7,6.8-2.5,8-5.2c0.8-1.9,0.7-4-0.4-5.2
						C268.5,125.8,267.4,125.4,266.1,125.4z M240.6,118.2c2.1,0.4,4,0.2,5.5-0.2c4.5-1.7,6.1-6.2,5-9.5c-0.9-3-3.6-4-7.1-3.2
						c-3.6,0.9-4.3,6.4-3.7,10.9C240.4,116.9,240.5,117.4,240.6,118.2z"/>
				</g>
			</g>
		</g>
		<g>
			<path class="st7" d="M179.9,225.5c-8.7-7.7-21.7-14.7-26.9-25.5c-1.7-3.6-3.2-7.1-4.6-10.7c-0.1,0.5-0.1,1.1-0.2,1.5
				c-1.9,8.2-44.4,67.5-40,81.1c4.3,13.5,42.5,36.2,52.6,33.8c9.1-2.1,40.7-46.9,53.3-55.8C201.5,243.4,190.2,234.6,179.9,225.5z"/>
			<path class="st4" d="M195.2,269.4c3.4-4,6.8-7.7,9.7-11c-33.9-13.5-54.4-45.8-61.4-58.7c-2.4,4-5.3,8.9-8.7,14.4
				C150.9,240.3,181.6,261.1,195.2,269.4z"/>
			<path class="st4" d="M179,288.4c3-3.4,6.1-7,9.1-10.7c-31.5-14.1-50.6-43.9-57.4-56.6c-2.8,4.7-5.8,9.6-8.5,14.6
				C137.1,259.8,164.4,279.2,179,288.4z"/>
			<path class="st4" d="M171.4,296.8c-28.5-14.4-46.3-41.3-53.4-54c-3.1,5.7-5.7,11.2-7.6,15.9c13.5,20.4,35.4,37.1,50,47h0.1
				C162.9,305.1,166.8,301.6,171.4,296.8z"/>
		</g>
	</g>
	<path class="st0" d="M74.9,231c0,0,18.9,38.7,22.8,39c4,0.4,72.5-5.1,77.5-8c2.8-1.7,5.1-4.3,7.7-6.4c1.2-0.9,2.4-2,3.6-2.8
		c1.4-0.9,3.1-1.4,4.4-2.5c1.1-0.9,4.7-6.4,6.9-5.9c1.7,0.4,1.5,1.7,1.2,3.1c-0.4,1.8-2.7,3.3-3.9,4.6c-0.7,0.7-2.6,2.7-2.3,3.8
		c0.5,1.5,3.9-1.2,4.6-1.7c1.2-0.8,2.1-1.5,3.2-2.7c1.1-1.2,2-2.5,2.8-3.8c0.6-0.8,1.1-1.7,1.7-2.5c0.9-1.3,1.7-2.6,2.5-4
		c0.6-1.1,1.5-2.3,2.8-1.5c1.5,0.8,0,3.3-0.6,4.4c-0.6,1.2-1.2,2.3-1.7,3.4c-0.4,0.8-1.7,2.1-1.2,3.1c1.4-0.9,2.7-3,3.8-4.3
		c0.7-0.9,4.2-6.6,5.8-5.6c2.6,1.8-0.5,5.6-1.7,7.1c-0.7,1.1-1.7,2.1-2.6,3c-0.5,0.4-2.4,2.4-2,2.4c2.4-0.2,4.2-3.9,5.7-5.6
		c0.9-1.1,3.9-4.2,4.3-1.1c0.1,1.3-0.6,2.3-1.3,3.3c-0.9,1.4-2.4,3.1-3.8,4.2c-1.2,0.8-2.5,2.7-2.5,2.7c1.8,0,5.3-4.6,7-3.4
		c1.1,0.8-0.1,3-0.7,3.7c-4.2,4.6-10.4,7.8-15.9,10.7c-5.9,3.2-12,6.1-18.3,8.4c-8.9,3.6-84.4,27.2-93.4,26.1
		c-9-1.1-33-47.4-39.8-60.8C44.9,228.1,74.9,231,74.9,231z"/>
	<path class="st2" d="M49.2,252c0,0,23.9-8.9,37.6-21.2c0,0-30.9-69.2-52.7-51.9S49.2,252,49.2,252z"/>
	<path class="st1" d="M71.3,107.2c0,0,4.2-1.3,6.9,2.6c2.5,3.7,0.6,8.8-2,6.5c-2.6-2.3-1.3-3.9-1.5-5.6
		C74.2,109,72.3,107.5,71.3,107.2z"/>
	<path class="st0" d="M250.5,244.3c1.2-0.7,2.8,0.1,4.9,1.9c-2.7-3.3-5.9-6.9-2.7-7.2c3.1-0.5,5.2,4.3,7.4,5.8
		c-1.2-1.7-8.2-6.5-5.5-10.2c1.7-2.1,9.1,6.3,10.7,8.1c-1.4-1.4-7.8-8.1-4.4-9.4c3-1.2,7.4,4.5,9.5,6.3c1.5,1.3,3.8,2.4,4.2,4.6
		c0.7,4.3-5.5,7.1-8.7,8.1c-4.3,1.2-8.9,0.1-12.6-2.1C250.9,248.6,249.3,245.2,250.5,244.3z"/>
</g>
<linearGradient id="SVGID_1_" gradientUnits="userSpaceOnUse" x1="199.9997" y1="411.3157" x2="199.9997" y2="171.0006" gradientTransform="matrix(1 -1.688750e-03 1.688750e-03 1 -0.6053 0.3375)">
	<stop  offset="0" style="stop-color:#FFFFFF"/>
	<stop  offset="0.1401" style="stop-color:#FBFDFE"/>
	<stop  offset="0.2678" style="stop-color:#F0F8FC"/>
	<stop  offset="0.3907" style="stop-color:#DEEFF8"/>
	<stop  offset="0.5107" style="stop-color:#C4E3F3"/>
	<stop  offset="0.6286" style="stop-color:#A2D3EC"/>
	<stop  offset="0.7449" style="stop-color:#79BFE4"/>
	<stop  offset="0.8599" style="stop-color:#48A8D9"/>
	<stop  offset="0.9712" style="stop-color:#118DCE"/>
	<stop  offset="1" style="stop-color:#0186CB"/>
</linearGradient>
<path class="st8" d="M0.1,429.2c0,0,58.5-316.3,400-0.7L0.1,429.2z"/>
</svg>
